<svg width="205" height="123" viewBox="0 0 205 123" fill="none" xmlns="http://www.w3.org/2000/svg">
<rect width="205" height="123" fill="#121212"/>
<rect x="0.5" y="0.5" width="204" height="122" stroke="white" stroke-opacity="0.2"/>
<g clip-path="url(#clip0_61_3)">
<path d="M156.273 55.9233H155.211V35.9336L104.045 11.1951L52.8488 36.4519V53.7022H51.7974V35.775L104.035 10L104.264 10.1058L156.273 35.2567V55.9233Z" fill="url(#paint0_linear_61_3)"/>
<path d="M164.215 56.0079H39.9092V77.8378H164.215V56.0079Z" fill="#1B1D1C"/>
<path d="M69.1198 64.7864C69.1006 64.4142 69.0089 64.0495 68.8498 63.7136C68.6908 63.3777 68.4676 63.0773 68.1933 62.8298C67.0794 61.9413 63.4255 62.3432 61.9473 62.3644C61.9473 65.8864 61.9473 69.3872 61.9473 72.9409C63.7274 72.9409 66.9233 73.3957 68.3807 72.3169C68.6515 72.0139 68.8508 71.6522 68.9636 71.2592C69.2103 69.111 69.2626 66.9443 69.1198 64.7864ZM66.8608 70.9102C65.9871 71.1115 65.0867 71.1651 64.1958 71.0689V64.2364C65.0365 64.1173 65.8918 64.1639 66.7151 64.3739C67.1523 65.0826 67.017 69.8314 66.8608 70.9102Z" fill="#E7E6E6"/>
<path d="M81.7266 62.3538C82.7676 62.3538 83.8086 62.3538 84.8496 62.3538C85.2972 64.3739 86.078 66.3517 86.5672 68.3824C87.1294 66.3623 87.7748 64.3527 88.3682 62.3538C89.4092 62.3538 90.4502 62.3538 91.4912 62.3538C91.5745 65.8652 91.4912 69.4083 91.4912 72.9303C90.7937 72.9303 90.0754 72.9303 89.4092 72.9303C89.4092 70.9842 89.4092 69.0381 89.4092 67.092C89.4092 66.2776 89.4092 65.4844 89.5133 64.67L87.7123 70.6775C87.0045 70.6775 86.3174 70.6775 85.6303 70.6775C84.9849 68.7949 84.4644 66.8488 83.8814 64.945V72.9303C83.1736 72.9303 82.4657 72.9303 81.7994 72.9303L81.7266 62.3538Z" fill="#E7E6E6"/>
<path d="M136.899 68.8266C137.195 68.6954 137.458 68.5008 137.672 68.2561C137.886 68.0114 138.045 67.7226 138.138 67.4094C138.43 66.1718 138.43 64.8818 138.138 63.6442C137.896 63.2702 137.573 62.957 137.195 62.728C136.816 62.499 136.391 62.3602 135.952 62.3221C134.414 62.2058 132.869 62.2058 131.33 62.3221C131.33 65.8335 131.33 69.3555 131.33 72.8986C132.048 72.8986 132.777 72.8986 133.495 72.8986V69.1122H134.651L136.389 72.888C137.183 72.9409 137.979 72.9409 138.773 72.888L136.899 68.8266ZM136.067 67.0921C135.252 67.3451 134.395 67.4314 133.547 67.3459C133.547 66.2883 133.547 65.2306 133.547 64.173C134.06 64.1307 134.575 64.1307 135.088 64.173C135.436 64.2061 135.758 64.377 135.983 64.6489C136.369 65.2201 136.119 66.4258 136.035 67.0921H136.067Z" fill="#E7E6E6"/>
<path d="M100.464 62.8826C99.5066 61.9519 95.6653 62.3432 94.2183 62.3644V72.9409C94.9366 72.9409 95.6653 72.9409 96.3836 72.9409V69.3343H97.4246C98.5488 69.3343 99.6523 69.4506 100.548 68.6045C100.883 68.2738 101.143 67.8721 101.308 67.4279C101.474 66.9837 101.541 66.508 101.505 66.0344C101.55 65.4649 101.481 64.892 101.302 64.3503C101.123 63.8086 100.838 63.3093 100.464 62.8826ZM99.0277 67.2719C98.1757 67.4233 97.3089 67.4695 96.446 67.4094C96.446 66.3517 96.446 65.2941 96.446 64.2364C96.9665 64.2364 97.487 64.2364 98.0492 64.2364C98.2177 64.2448 98.3829 64.2875 98.5349 64.362C98.6869 64.4365 98.8226 64.5412 98.934 64.6701C99.4233 65.2095 99.111 66.5633 99.0277 67.2719Z" fill="#E7E6E6"/>
<path d="M119.515 62.9038C118.474 61.9625 114.758 62.3432 113.269 62.3644V72.9409C113.987 72.9409 114.706 72.9409 115.424 72.9409C115.424 71.7458 115.424 70.54 115.424 69.3343H116.892C117.362 69.4162 117.845 69.3944 118.306 69.2703C118.768 69.1462 119.198 68.9228 119.567 68.6151C120.123 67.7726 120.411 66.7765 120.39 65.7622C120.37 64.748 120.042 63.7647 119.453 62.9461L119.515 62.9038ZM118.026 67.2825H117.954H117.829C117.044 67.3744 116.254 67.4027 115.466 67.3671C115.466 66.3094 115.466 65.2518 115.466 64.1941C116.03 64.1465 116.598 64.1465 117.162 64.1941C117.332 64.2153 117.496 64.2723 117.643 64.3616C117.79 64.4508 117.917 64.5703 118.016 64.7124C118.267 65.5496 118.27 66.4432 118.026 67.2825Z" fill="#E7E6E6"/>
<path d="M76.8545 62.3644C75.8135 62.3644 74.7725 62.3644 73.7836 62.3644C72.8779 65.8758 72.0243 69.4083 71.0249 72.9409C71.7848 72.9409 72.5344 72.9409 73.2943 72.9409C73.4504 72.2429 73.6691 71.5237 73.7732 70.8256C74.8142 70.8256 75.8552 70.8256 76.8962 70.8256L77.3854 72.9409C78.1246 72.9409 78.8845 72.9409 79.6236 72.9409C78.7387 69.5247 77.9059 65.5902 76.8545 62.3644ZM76.2195 69.0276H74.2104C74.606 67.5786 75.0119 66.0873 75.2514 64.6066C75.6794 65.8047 76.0272 67.0309 76.2924 68.2767C76.3548 68.5728 76.4069 68.7843 76.2195 69.0276Z" fill="#E7E6E6"/>
<path d="M102.973 62.3749C103.775 62.3749 104.587 62.3749 105.399 62.3749C105.971 63.6547 106.544 64.945 107.085 66.246C107.528 64.9168 108.067 63.6229 108.699 62.3749C109.532 62.3749 110.365 62.3749 111.197 62.3749C110.406 64.0883 109.511 65.844 108.553 67.4728C109.063 68.5305 111.072 71.9784 111.135 72.8669C110.338 72.925 109.538 72.925 108.741 72.8669C108.121 71.6105 107.575 70.3179 107.106 68.9958L105.316 72.8774C104.483 72.8774 103.681 72.8774 102.859 72.814C103.733 71.0477 104.566 69.2285 105.534 67.5257C104.691 65.8229 103.744 64.1412 102.973 62.3749Z" fill="#E7E6E6"/>
<path d="M122.753 62.3644C124.772 62.3644 126.802 62.3644 128.832 62.3644V64.1624C127.541 64.2364 126.219 64.1624 124.918 64.1624V66.5738C125.959 66.5738 127.114 66.5738 128.218 66.6373V68.467C127.177 68.5622 126.021 68.467 124.928 68.467V69.5247V71.0265C126.233 71.0265 127.534 71.0265 128.832 71.0265V72.8246C126.823 72.9303 124.762 72.8246 122.742 72.8246C122.628 69.4189 122.68 65.8546 122.753 62.3644Z" fill="#E7E6E6"/>
<path d="M140.158 62.3538C142.469 62.3538 144.791 62.3538 147.091 62.3538C147.091 62.9566 147.091 63.5489 147.091 64.1412C146.31 64.1412 145.519 64.1412 144.739 64.1412V72.8562C144.031 72.8562 143.312 72.8562 142.594 72.8562C142.542 69.9583 142.594 67.0392 142.594 64.1412L140.179 64.0777C140.117 63.5489 140.148 62.9566 140.158 62.3538Z" fill="#E7E6E6"/>
<path d="M141.897 41.4652V40.0373C140.856 39.2864 140.012 38.4509 139.086 37.6047C139.846 37.7105 142.386 40.1643 143.177 40.7777C142.021 41.7186 140.808 42.5841 139.544 43.3689C139.846 42.6392 141.262 41.8988 141.897 41.4652Z" fill="url(#paint1_linear_61_3)"/>
<path d="M103.806 23.5273C105.52 24.1443 107.187 24.8902 108.792 25.759L126.354 34.0933C125.584 35.024 124.865 35.9759 124.168 36.9595C117.526 33.7866 110.978 30.5396 104.316 27.4407L104.191 27.3772L103.868 27.3137C103.192 27.3137 86.1714 35.6586 83.9644 36.7163C83.2704 35.7573 82.5417 34.8054 81.7783 33.8606C84.183 32.803 86.5461 31.6078 88.9196 30.4867L103.806 23.5273Z" fill="#D3302F"/>
<path d="M104.066 13.5643C104.97 13.9225 105.846 14.3467 106.69 14.8335L112.196 17.5833C119.411 21.1053 126.677 24.5744 133.776 28.2762L134.058 29.0695C133.836 29.5312 133.638 30.0043 133.464 30.4867C130.206 28.7627 126.843 27.208 123.533 25.5792L104.16 16.0603C103.66 16.0603 77.8121 28.8791 74.6579 30.4232C74.4418 30.1163 74.2999 29.762 74.2439 29.3889C74.1878 29.0159 74.2191 28.6347 74.3351 28.2762L104.066 13.5643Z" fill="#E9494A"/>
<path d="M67.6935 31.4492L67.8184 31.5656C68.0917 31.8666 68.4599 32.0612 68.8594 32.1155H69.0572H69.1925C69.0749 32.5488 68.918 32.9702 68.7241 33.3741L61.4371 36.9067C60.1046 37.5519 58.7304 38.1653 57.4396 38.8739V54.1041H96.4148C97.9193 54.0089 99.4282 54.0089 100.933 54.1041C95.2801 54.4109 89.565 54.0301 83.9019 54.1887C81.2474 54.0195 78.5095 54.1887 75.855 54.1887H60.5106C57.9433 54.3002 55.3722 54.279 52.8071 54.1253C53.6295 54.1253 54.4519 54.1253 55.2847 54.1253C55.2847 48.6043 55.3784 43.0728 55.2847 37.5519L67.6935 31.4492Z" fill="#E9494A"/>
<path d="M140.491 31.4492C143.166 32.8453 145.894 34.1251 148.6 35.4471C149.984 36.2051 151.409 36.8831 152.868 37.4778C152.816 43.0094 152.785 48.562 152.868 54.0936C153.691 54.0936 154.545 54.0936 155.367 54.0936C153.15 54.358 149.6 54.157 147.268 54.1676H131.309C128.571 54.1676 125.761 54.0195 123.044 54.1676C117.308 53.9878 111.53 54.4003 105.805 54.083C107.189 53.9666 108.605 54.083 109.969 54.083H116.871C123.366 54.083 129.873 54.0195 136.369 54.083H150.745C150.839 49.0274 150.745 43.9612 150.745 38.9057L139.606 33.4799C139.44 33.1732 139.002 32.4963 139.034 32.179C139.594 32.1372 140.117 31.8755 140.491 31.4492Z" fill="#D3302F"/>
<path d="M111.062 20.6083C110.674 20.3207 110.25 20.086 109.802 19.9102C108.241 19.4025 106.117 19.7516 104.483 19.7304C104.483 19.1381 104.691 17.7103 104.326 17.2343C104.233 17.1074 103.9 17.0969 103.744 17.0651C103.691 17.9536 103.744 18.842 103.744 19.7304C102.265 19.7304 99.7252 19.4343 98.3407 19.9314C97.9204 20.1114 97.5192 20.3347 97.1436 20.5977C97.6016 20.5977 98.0596 20.5131 98.5177 20.4919C98.3822 21.5479 98.4138 22.6191 98.6114 23.6649L98.7883 23.8024C99.007 23.7072 99.1319 23.686 99.2672 23.4639C99.3193 22.4909 99.2672 21.5178 99.2672 20.5448H108.501C108.401 21.5268 108.475 22.519 108.72 23.4745C108.828 23.542 108.932 23.6162 109.032 23.6966C109.328 22.6674 109.41 21.5867 109.271 20.5236C109.869 20.5151 110.467 20.5433 111.062 20.6083Z" fill="#E7E6E6"/>
<path d="M114.278 24.2889C113.071 24.2889 111.822 24.2254 110.625 24.2889C111.063 24.5623 111.536 24.7757 112.03 24.9235C113.945 25.3571 117.36 25.0187 119.483 25.0927C119.483 26.0023 119.223 27.5782 119.66 28.3609C119.841 28.4846 120.037 28.5841 120.243 28.657C120.243 27.4513 120.243 26.235 120.243 25.0292C119.741 24.7122 119.188 24.4867 118.609 24.3629C117.17 24.2222 115.722 24.1975 114.278 24.2889Z" fill="#E7E6E6"/>
<path d="M89.5338 24.2995C89.0921 24.458 88.6609 24.6453 88.2429 24.86C88.2429 25.5369 88.0139 27.9484 88.3782 28.3503C88.6801 28.2551 88.8259 28.2657 89.0341 28.0118V25.1033H92.3028C93.4837 25.1704 94.6681 25.1315 95.8422 24.9869C96.4499 24.8395 97.0349 24.6082 97.5807 24.2995C94.9053 24.31 92.2091 24.2148 89.5338 24.2995Z" fill="#E7E6E6"/>
<path d="M140.387 44.7333C140.005 44.9579 139.637 45.2051 139.284 45.4737C140.918 45.4737 142.563 45.4737 144.197 45.4737C144.142 47.1085 144.271 48.7444 144.582 50.3494L144.707 50.4446C145.082 50.011 145.02 46.288 145.04 45.4737C146.556 45.6324 148.084 45.6324 149.6 45.4737C149.696 45.3235 149.733 45.1425 149.704 44.966C148.851 44.4689 141.865 44.7227 140.387 44.7333Z" fill="#E7E6E6"/>
<path d="M62.8218 44.7122C61.4336 44.6286 60.0409 44.6604 58.6578 44.8073C58.4912 45.0189 58.5121 45.0717 58.5121 45.3362C59.1887 45.6958 62.4054 45.4842 63.3007 45.4314V45.5688C63.5609 46.5313 63.1758 48.7418 63.7171 49.4716H63.8524C64.1855 48.1707 63.8524 46.69 64.196 45.4525C65.7679 45.5477 67.319 45.4525 68.9325 45.4525C68.5682 45.1881 68.1726 44.9554 67.7874 44.7122C66.1114 44.6593 64.477 44.7122 62.8218 44.7122Z" fill="#E7E6E6"/>
<path d="M58.6888 40.1854C60.1775 40.1854 61.6765 40.1854 63.1652 40.1854C63.4983 39.9527 63.8314 39.72 64.2062 39.4662C64.2617 38.6272 64.2443 37.7849 64.1541 36.949C64.0759 36.8772 63.9883 36.8166 63.8939 36.7692C63.6024 37.0018 63.4566 37.0759 63.3838 37.4778C63.3421 38.1258 63.3421 38.7759 63.3838 39.4239C62.4885 39.4239 59.0428 39.2018 58.5535 39.6566C58.4958 39.8098 58.4958 39.9793 58.5535 40.1325L58.6888 40.1854Z" fill="#E7E6E6"/>
<path d="M149.735 40.1642C149.735 39.8575 149.735 39.6565 149.496 39.445C148.039 39.2864 146.498 39.445 145.03 39.445C145.03 38.9268 145.238 37.5518 144.853 37.1605C144.658 37.0199 144.433 36.9259 144.197 36.8855C144.197 37.7951 144.197 38.7258 144.197 39.6354C144.468 39.8364 144.728 40.0479 145.009 40.2277C146.571 40.1854 148.163 40.2488 149.735 40.1642Z" fill="#E7E6E6"/>
<path d="M121.41 29.1964C121.874 29.441 122.363 29.6359 122.867 29.7781C125.289 30.0324 127.728 30.0572 130.154 29.8521C129.716 29.6029 129.251 29.4042 128.77 29.2599C126.324 29.0036 123.859 28.9824 121.41 29.1964Z" fill="#E7E6E6"/>
<path d="M77.9058 29.8733C80.2688 29.9685 82.6736 29.9685 85.0366 29.8733L86.7751 29.1541C84.3496 29.1541 81.9136 29.1541 79.4881 29.1541L77.9058 29.8733Z" fill="#E7E6E6"/>
<path d="M37.7959 53.8608V79.9849H166.329V53.8608H37.7959ZM164.215 77.8378H39.9091V56.0079H164.215V77.8378Z" fill="url(#paint2_linear_61_3)"/>
<path d="M104.118 97.9226L101.037 99.8582L102.057 96.7804L99.2256 94.792L102.911 94.6651L104.035 91.4392L105.045 94.4641L108.865 94.7708L106.003 96.6112L106.991 99.911L104.066 97.8063" fill="#E7E6E6"/>
<path d="M104.014 112L64.4561 92.5921H65.9655L104.014 110.942L141.719 92.5921H143.635L104.014 112Z" fill="#E7E6E6"/>
<path d="M103.942 108.076L72.9614 92.7507H79.1658L103.952 105.041L129.53 92.5921H135.13L104.296 107.917" fill="#D3302F"/>
<path d="M105.222 39.9104L105.493 39.8152C105.9 40.1687 106.203 40.63 106.367 41.1479L106.242 41.4229C105.935 41.4933 105.613 41.4599 105.326 41.3277C105.156 40.8758 105.12 40.383 105.222 39.9104Z" fill="#F1F0F0"/>
<path d="M97.7684 37.298C97.8534 37.7124 97.9022 38.1336 97.9141 38.5566C98.588 39.271 99.153 40.0838 99.5901 40.9681C99.5901 41.0527 99.6734 41.1373 99.7046 41.2219C100.34 41.3065 101.027 41.2219 101.641 41.4017H101.506C100.589 41.4017 98.8198 41.6767 98.1327 40.9787C97.4457 40.2806 97.7476 38.2605 97.7684 37.298Z" fill="#C5C3C4"/>
<path d="M109.917 48.9534V44.0353H105.139V48.9745L109.917 48.9534Z" fill="#E7E6E6"/>
<path d="M102.442 48.9534V44.0353H97.6641V48.9745L102.442 48.9534Z" fill="#E7E6E6"/>
<path d="M109.917 41.37V36.4519H105.139V41.3911L109.917 41.37Z" fill="#E7E6E6"/>
<path d="M102.442 41.37V36.4519H97.6641V41.3911L102.442 41.37Z" fill="#E7E6E6"/>
<path d="M149.631 20.7881C149.631 20.8621 149.631 20.9256 149.631 20.9996C149.575 21.4395 149.39 21.852 149.1 22.1842C147.785 23.5513 146.349 24.7939 144.811 25.8965C143.354 27.1023 141.917 28.4138 140.418 29.5454L140.273 29.6512C140.033 29.8733 139.825 30.1377 139.502 30.1589C139.18 30.18 139.044 29.905 138.805 30.0108C138.316 30.2118 138.097 30.8887 137.535 30.9627C137.389 30.8992 137.129 30.73 136.983 30.7935C136.834 30.8767 136.711 31.0015 136.629 31.1531C136.9 32.5597 138.982 33.5645 137.941 35.3202C137.243 36.5154 132.184 39.7306 130.8 40.6085C133.767 40.1955 136.625 39.1928 139.211 37.6576C139.971 37.7634 142.521 40.2171 143.312 40.8306C142.155 41.769 140.941 42.6344 139.679 43.4218C136.901 45.4101 133.872 47.0109 130.675 48.1813C130.25 48.4387 129.791 48.6312 129.311 48.7524C125.869 50.1879 122.263 51.1793 118.578 51.7033C120.754 46.0977 122.742 41.4229 126.479 36.6211C127.352 35.4408 128.309 34.3272 129.342 33.2895C129.956 32.4881 130.654 31.7575 131.424 31.1108C132.465 31.9675 135.224 34.4953 136.265 34.9183C136.359 34.965 136.462 34.9893 136.567 34.9893C136.671 34.9893 136.775 34.965 136.869 34.9183C136.869 34.9183 136.869 34.8443 136.869 34.802C137.066 33.8924 135.828 32.9934 135.37 32.3059C134.276 30.6137 135.755 30.5925 136.005 29.3762L135.734 29.0589C136.057 28.4772 136.983 28.2868 137.118 27.6205L136.837 27.3455V27.1869C137.487 26.4933 138.206 25.8695 138.982 25.3254C140.491 23.9293 142.105 22.6495 143.687 21.3275C144.499 20.5591 145.366 19.8521 146.279 19.2122C146.687 18.9255 147.168 18.7673 147.664 18.7574H147.872H148.08L148.288 18.8208C148.354 18.8401 148.417 18.8685 148.476 18.9055L148.663 19.0112C148.727 19.0412 148.787 19.0804 148.84 19.1276L149.007 19.2651L149.142 19.4131C149.19 19.4642 149.232 19.521 149.267 19.5824L149.392 19.815C149.427 19.8763 149.459 19.9399 149.486 20.0054C149.514 20.067 149.539 20.1306 149.558 20.1958C149.581 20.265 149.598 20.3357 149.61 20.4073V20.6189C149.621 20.6506 149.631 20.7246 149.631 20.7881Z" fill="url(#paint3_linear_61_3)"/>
<path d="M138.898 39.2758C139.533 39.8152 140.168 40.4181 140.845 40.894C137.483 43.3882 133.855 45.4887 130.029 47.1553C129.593 47.3022 129.168 47.4825 128.759 47.6947C126.135 48.6303 123.459 49.4038 120.743 50.011C123.866 47.4409 126.864 44.7227 130.029 42.1315C133.069 42.0786 136.254 40.7036 138.898 39.2758Z" fill="#1B1D1C"/>
<path d="M139.471 28.2762C141.407 26.8167 143.24 25.1879 145.103 23.6331C146.03 22.8505 147.112 22.0996 147.955 21.2323C148.148 21.0718 148.277 20.8467 148.32 20.5977C148.32 20.4496 148.32 20.3121 148.32 20.164C148.33 20.012 148.373 19.8641 148.445 19.7304C148.601 19.7304 148.549 19.7304 148.663 19.8679C148.755 20.0119 148.817 20.1733 148.846 20.3424C148.874 20.5114 148.869 20.6846 148.83 20.8515C148.739 21.2305 148.544 21.5753 148.268 21.8457C146.676 23.4432 144.99 24.9407 143.219 26.3302C142.192 27.3145 141.115 28.243 139.992 29.1118L139.742 29.2599C139.513 29.0166 139.263 28.8368 139.211 28.4983L139.471 28.2762Z" fill="#2A2B31"/>
<path d="M58.481 20.7881C58.481 20.8621 58.481 20.9256 58.481 20.9996C58.531 21.4413 58.7168 21.8558 59.0119 22.1842C60.3277 23.5513 61.7633 24.7939 63.3008 25.8965C64.7582 27.1023 66.1948 28.4138 67.6938 29.5454L67.8396 29.6512C68.079 29.8733 68.2872 30.1377 68.6099 30.1589C68.9326 30.18 69.068 29.905 69.3074 30.0108C69.7967 30.2118 70.0153 30.8887 70.5774 30.9627C70.7232 30.8992 70.9834 30.73 71.1292 30.7935C71.278 30.8737 71.3982 30.9995 71.4727 31.1531C71.1708 32.5597 69.1408 33.5857 70.1506 35.3202C70.8481 36.5154 75.9178 39.7306 77.2919 40.6085C74.3279 40.1955 71.4732 39.1927 68.891 37.6576C68.1311 37.7634 65.5806 40.2171 64.7894 40.8306C65.9472 41.769 67.1605 42.6344 68.4225 43.4218C71.2 45.4122 74.2288 47.0131 77.4272 48.1813C77.8517 48.4387 78.3112 48.6312 78.7909 48.7524C82.2331 50.1879 85.8388 51.1793 89.5237 51.7033C87.348 46.0977 85.3597 41.4229 81.6225 36.6211C80.7469 35.4433 79.7902 34.33 78.7597 33.2895C78.1462 32.4881 77.448 31.7575 76.6777 31.1108C75.6367 31.9675 72.8676 34.4953 71.837 34.9183C71.743 34.965 71.6398 34.9893 71.5351 34.9893C71.4305 34.9893 71.3273 34.965 71.2333 34.9183C71.2333 34.9183 71.2333 34.8443 71.2333 34.802C71.0355 33.8924 72.2743 32.9934 72.7323 32.3059C73.8254 30.6137 72.3471 30.5925 72.0973 29.3762L72.368 29.0589C72.0452 28.4772 71.1187 28.2868 70.9834 27.6205L71.2645 27.3455V27.1869C70.6129 26.5044 69.8943 25.8913 69.12 25.3571C67.6106 23.961 65.997 22.6813 64.4043 21.3592C63.5979 20.5885 62.7348 19.8813 61.8226 19.2439C61.4237 18.9515 60.9501 18.7826 60.4589 18.7574H60.2403H60.0425L59.8343 18.8208C59.7682 18.8401 59.7052 18.8685 59.6469 18.9055L59.4491 19.0112C59.3896 19.0439 59.3338 19.0829 59.2825 19.1276L59.116 19.2651L58.9806 19.4131C58.9324 19.4642 58.8905 19.521 58.8557 19.5824C58.8096 19.639 58.7679 19.6991 58.7308 19.7622C58.6987 19.8236 58.6709 19.8872 58.6475 19.9525C58.6188 20.0141 58.5944 20.0778 58.5747 20.1429C58.5524 20.2121 58.535 20.2828 58.5226 20.3544V20.566C58.4914 20.6506 58.481 20.7246 58.481 20.7881Z" fill="url(#paint4_linear_61_3)"/>
<path d="M69.2343 39.2758C68.5993 39.8152 67.9643 40.4181 67.2876 40.894C70.6472 43.3859 74.2718 45.4862 78.0932 47.1553C78.5308 47.2984 78.9557 47.4788 79.3632 47.6947C81.9903 48.6303 84.6705 49.4038 87.3894 50.011C84.2664 47.4409 81.2683 44.7227 78.1036 42.1315C75.0431 42.0786 71.8576 40.7036 69.2343 39.2758Z" fill="#1B1D1C"/>
<path d="M68.6408 28.2762C66.7046 26.8167 64.8724 25.1879 63.009 23.6331C62.0825 22.8505 60.9999 22.0996 60.1567 21.2323C59.9591 21.0765 59.8285 20.8491 59.7923 20.5977C59.7923 20.4496 59.7923 20.3121 59.7923 20.164C59.7819 20.012 59.7393 19.8641 59.6674 19.7304C59.5008 19.7304 59.5633 19.7304 59.4488 19.8679C59.3547 20.0108 59.2913 20.1723 59.2626 20.3417C59.2339 20.5112 59.2406 20.6849 59.2822 20.8515C59.3728 21.2305 59.5678 21.5753 59.8444 21.8457C61.4338 23.4458 63.1201 24.9435 64.8932 26.3302C65.9199 27.3145 66.9971 28.243 68.1203 29.1118L68.3702 29.2599C68.5992 29.0166 68.849 28.8368 68.9011 28.4983L68.6408 28.2762Z" fill="#2A2B31"/>
<path d="M182.756 76.6427L192 87.8326H12L21.2649 76.6427L12 67.6949H34.8396V84.2366H169.16V67.6949H192L182.756 76.6427Z" fill="#D3302F"/>
</g>
<defs>
<linearGradient id="paint0_linear_61_3" x1="51.7974" y1="32.9616" x2="156.273" y2="32.9616" gradientUnits="userSpaceOnUse">
<stop stop-color="#9B9B9B"/>
<stop offset="0.47" stop-color="#F9F9F9"/>
<stop offset="1" stop-color="#9B9B9B"/>
</linearGradient>
<linearGradient id="paint1_linear_61_3" x1="142.802" y1="39.4133" x2="138.752" y2="40.6359" gradientUnits="userSpaceOnUse">
<stop stop-color="#949394"/>
<stop offset="1" stop-color="#B3B2B2"/>
</linearGradient>
<linearGradient id="paint2_linear_61_3" x1="37.7959" y1="66.9228" x2="166.329" y2="66.9228" gradientUnits="userSpaceOnUse">
<stop stop-color="#9B9B9B"/>
<stop offset="0.47" stop-color="#F9F9F9"/>
<stop offset="1" stop-color="#9B9B9B"/>
</linearGradient>
<linearGradient id="paint3_linear_61_3" x1="118.568" y1="35.1933" x2="149.631" y2="35.1933" gradientUnits="userSpaceOnUse">
<stop stop-color="#9B9B9B"/>
<stop offset="0.47" stop-color="#F9F9F9"/>
<stop offset="1" stop-color="#9B9B9B"/>
</linearGradient>
<linearGradient id="paint4_linear_61_3" x1="89.5445" y1="35.1933" x2="58.481" y2="35.1933" gradientUnits="userSpaceOnUse">
<stop stop-color="#9B9B9B"/>
<stop offset="0.47" stop-color="#F9F9F9"/>
<stop offset="1" stop-color="#9B9B9B"/>
</linearGradient>
<clipPath id="clip0_61_3">
<rect width="180" height="102" fill="white" transform="translate(12 10)"/>
</clipPath>
</defs>
</svg>
